<mxfile host="65bd71144e">
    <diagram id="m492GA6PfM_DPG8gkDn2" name="PÃ¡gina-1">
        <mxGraphModel dx="958" dy="449" grid="1" gridSize="10" guides="1" tooltips="1" connect="1" arrows="1" fold="1" page="1" pageScale="1" pageWidth="827" pageHeight="1300" math="0" shadow="0">
            <root>
                <mxCell id="0"/>
                <mxCell id="1" parent="0"/>
            </root>
        </mxGraphModel>
    </diagram>
</mxfile>